PathFileType	4	(X/Y/Z)	Walk9.trc
DataRate	CameraRate	NumFrames	NumMarkers	Units	OrigDataRate	OrigDataStartFrame	OrigNumFrames
200.000000	200.000000	4	61	mm	200.000000	564	817
Frame#	Times		RCAR		LTH3		LTB1		LBHD		RWRU		LWRU		LFA1		RTH2		LUA1		LElbow		LCAR		LTH2		RPSI		RTH3		C7		LElbowM		RFA1		RBHD		RToe		RTB2		RTB3		LTH1		RTB1		RMT5		RElbow		RASI		RLFC		RTB4		LWRR		RMT1		RTH4		T10		RBack		RLMAL		LPSI		CLAV		RMFC		RMMAL		RCAL		RUA1		LMFC		LACR1		LLFC		STRN		RWRR		RTH1		LTH4		LTB4		RElbowM		LASI		LTB3		LMT5		LFHD		RFHD		RACR1		LCAL		LMMAL		LTB2		LLMAL		LToe		LMT1
			X1	Y1	Z1	X2	Y2	Z2	X3	Y3	Z3	X4	Y4	Z4	X5	Y5	Z5	X6	Y6	Z6	X7	Y7	Z7	X8	Y8	Z8	X9	Y9	Z9	X10	Y10	Z10	X11	Y11	Z11	X12	Y12	Z12	X13	Y13	Z13	X14	Y14	Z14	X15	Y15	Z15	X16	Y16	Z16	X17	Y17	Z17	X18	Y18	Z18	X19	Y19	Z19	X20	Y20	Z20	X21	Y21	Z21	X22	Y22	Z22	X23	Y23	Z23	X24	Y24	Z24	X25	Y25	Z25	X26	Y26	Z26	X27	Y27	Z27	X28	Y28	Z28	X29	Y29	Z29	X30	Y30	Z30	X31	Y31	Z31	X32	Y32	Z32	X33	Y33	Z33	X34	Y34	Z34	X35	Y35	Z35	X36	Y36	Z36	X37	Y37	Z37	X38	Y38	Z38	X39	Y39	Z39	X40	Y40	Z40	X41	Y41	Z41	X42	Y42	Z42	X43	Y43	Z43	X44	Y44	Z44	X45	Y45	Z45	X46	Y46	Z46	X47	Y47	Z47	X48	Y48	Z48	X49	Y49	Z49	X50	Y50	Z50	X51	Y51	Z51	X52	Y52	Z52	X53	Y53	Z53	X54	Y54	Z54	X55	Y55	Z55	X56	Y56	Z56	X57	Y57	Z57	X58	Y58	Z58	X59	Y59	Z59	X60	Y60	Z60	X61	Y61	Z61

564	2.82	-135.09	838.7	319.05	-190.06	615.76	-151.89	-190.26	371.41	-59.869	-169.56	1647	-91.63	-194.75	867.51	300.86	3.5933	889.02	-285.41	-60.624	1006.4	-309.51	-21.216	742.04	179.4	-125.24	1302.9	-279.13	-121.69	1146.3	-310.53	84.658	874.15	-284.62	-110.28	702.77	-144.5	-314.69	1034.9	40.944	-62.721	632.03	205.71	-197.74	1521.6	-17.086	-162.92	1128.3	-246.69	-228.37	1000.5	295.86	-165.15	1659	49.797	58.597	51.228	161.73	-65.475	301.96	185.47	-51.629	213.5	116.99	-164.57	797.12	-183.24	-5.6503	392.61	136.3	-39.35	39.009	194.06	-246.62	1150.4	269.66	-104.77	1047.9	148.18	-49.403	519.36	198.2	-27.273	302.25	125.54	60.39	923.17	-234.08	18.552	47.329	129.82	-85.249	724	212.41	-309.05	1301.7	-18.09	-284.47	1441	108.92	-122.38	96.575	147.76	-315.75	1032.9	-37.541	-69.086	1429.9	-9.8566	-22.762	531.22	67.543	-71.873	117.85	77.321	-168.5	63.041	87.151	-192.99	1301	242.75	-199.68	518.13	-9.2726	-116.81	1471.8	-178.13	-211.79	512.47	-139.17	-27.93	1255.9	-7.3021	-127.07	878.32	265.18	-118.31	816.11	208.21	-178.51	705.91	-167.81	-215.37	285.18	-56.296	-259.41	1136.5	190.5	-100.44	1040.4	-135.56	-242.73	192.81	-55.303	-218.44	20.621	-129.15	9.8149	1687	-56.136	10.943	1692.3	20.121	-131.28	1470.7	150.44	-373.53	33.902	-51.261	-285.42	92.769	-12.779	-235.61	290.06	-129.16	-313.44	74.005	-94.466	-115.55	29.37	-58.851	-169.68	38.514	-44.068
565	2.825	-133.05	838.23	319.88	-188.03	615.74	-151.79	-189.5	371.31	-59.827	-164.56	1646.6	-91.475	-192.55	867.37	301.41	11.43	889.64	-285.17	-53.622	1006.5	-309.39	-16.637	741.47	178.87	-119.97	1302.6	-278.95	-115.66	1146.1	-310.49	92.623	875.41	-284.58	-107.67	702.19	-144.16	-310.07	1034.6	41.346	-57.98	631.46	205.28	-192.71	1521.3	-16.879	-156.71	1127.8	-246.59	-225.36	1000.5	296.35	-160.17	1658.5	49.951	76.436	53.249	162.31	-54.43	300.99	185.52	-38.332	212.62	117.38	-161.21	796.93	-182.97	2.7223	392.97	135.84	-21.028	38.652	195.03	-242.75	1150.5	269.95	-100.07	1047.3	148.52	-43.924	518.87	197.55	-16.408	302.03	125.5	68.079	924.27	-234.02	36.382	48.26	130.56	-80.626	723.38	212.17	-304.33	1301.5	-17.734	-279.4	1440.8	109.15	-105.73	93.874	148.8	-311.27	1032.7	-37.144	-64.119	1429.5	-9.7073	-17.999	530.78	66.625	-56.051	116.27	78.084	-151.18	58.98	88.425	-188.47	1300.9	243	-198.36	518.12	-9.2092	-111.9	1471.4	-177.91	-210.52	512.53	-139.09	-23.241	1255.4	-7.1399	-124.7	877.77	266.02	-112.88	815.25	208.36	-175.81	705.82	-167.57	-214.78	285.16	-56.297	-255.44	1136.5	190.78	-96.074	1039.9	-135.36	-242.43	192.84	-55.279	-218.48	20.614	-129.19	14.794	1686.6	-55.958	15.917	1691.9	20.298	-126.16	1470.3	150.65	-373.55	34.256	-51.34	-285.32	92.918	-12.814	-235.05	290.11	-129.15	-313.37	74.223	-94.501	-115.56	29.381	-58.864	-169.69	38.508	-44.085
566	2.83	-130.93	837.74	320.74	-185.99	615.72	-151.67	-188.72	371.23	-59.788	-159.55	1646.1	-91.294	-190.29	867.2	302.03	19.18	890.24	-284.91	-46.696	1006.7	-309.25	-12.145	740.79	178.33	-114.72	1302.3	-278.75	-109.69	1145.8	-310.43	100.49	876.64	-284.5	-105.05	701.6	-143.83	-305.43	1034.3	41.774	-53.373	630.8	204.83	-187.67	1520.9	-16.65	-150.55	1127.3	-246.45	-222.26	1000.6	296.9	-155.19	1658	50.132	94.116	55.47	162.79	-43.446	300.11	185.57	-25.136	211.87	117.75	-157.86	796.74	-182.69	10.965	393.34	135.35	-2.796	38.505	195.94	-238.8	1150.6	270.3	-95.351	1046.7	148.86	-38.565	518.32	196.88	-5.658	301.89	125.44	75.677	925.34	-233.93	54.07	49.414	131.23	-76.06	722.71	211.95	-299.6	1301.2	-17.354	-274.31	1440.6	109.42	-89.131	91.414	149.86	-306.76	1032.4	-36.718	-59.142	1429	-9.5399	-13.358	530.25	65.704	-40.327	114.9	78.845	-133.9	55.214	89.716	-183.88	1300.7	243.28	-197.05	518.14	-9.1386	-106.99	1470.9	-177.67	-209.25	512.59	-139.01	-18.543	1254.8	-6.9641	-122.27	877.2	266.89	-107.63	814.38	208.49	-173.11	705.74	-167.32	-214.18	285.14	-56.297	-251.42	1136.6	191.13	-91.706	1039.4	-135.16	-242.11	192.88	-55.263	-218.51	20.608	-129.23	19.787	1686.2	-55.756	20.908	1691.5	20.499	-121.02	1469.9	150.88	-373.57	34.621	-51.413	-285.22	93.074	-12.851	-234.49	290.16	-129.13	-313.3	74.451	-94.535	-115.56	29.393	-58.88	-169.71	38.503	-44.103
567	2.835	-128.74	837.24	321.65	-183.95	615.71	-151.55	-187.92	371.15	-59.754	-154.52	1645.6	-91.086	-187.94	867.01	302.7	26.841	890.8	-284.62	-39.848	1006.7	-309.08	-7.7343	740.01	177.78	-109.5	1302	-278.53	-103.78	1145.5	-310.34	108.27	877.83	-284.4	-102.44	701.01	-143.48	-300.75	1033.9	42.229	-48.89	630.04	204.38	-182.62	1520.5	-16.396	-144.45	1126.8	-246.28	-219.09	1000.6	297.5	-150.18	1657.5	50.34	111.61	57.882	163.17	-32.539	299.31	185.63	-12.061	211.28	118.11	-154.51	796.54	-182.4	19.079	393.72	134.84	15.309	38.569	196.8	-234.78	1150.7	270.69	-90.612	1046	149.22	-33.319	517.7	196.21	4.9671	301.84	125.35	83.184	926.38	-233.82	71.585	50.784	131.8	-71.548	721.98	211.73	-294.86	1301	-16.947	-269.2	1440.4	109.72	-72.604	89.204	150.92	-302.22	1032.1	-36.261	-54.156	1428.4	-9.3539	-8.8294	529.64	64.784	-24.726	113.77	79.597	-116.7	51.754	91.006	-179.23	1300.5	243.59	-195.72	518.17	-9.0579	-102.08	1470.4	-177.42	-207.96	512.66	-138.92	-13.833	1254.2	-6.7751	-119.78	876.61	267.8	-102.55	813.47	208.59	-170.41	705.65	-167.06	-213.57	285.13	-56.297	-247.35	1136.6	191.53	-87.334	1038.9	-134.96	-241.78	192.92	-55.255	-218.54	20.601	-129.27	24.794	1685.7	-55.529	25.917	1691	20.723	-115.86	1469.5	151.13	-373.59	34.999	-51.482	-285.11	93.237	-12.889	-233.93	290.22	-129.11	-313.24	74.692	-94.567	-115.56	29.407	-58.903	-169.73	38.501	-44.121
